<svg width="149" height="26" viewBox="0 0 149 26" fill="none" xmlns="http://www.w3.org/2000/svg">
<path d="M0.976562 3.48633V-5.96046e-07H17.4023V3.48633H11.2793V20H7.09961V3.48633H0.976562ZM24.1899 20.293C22.647 20.293 21.3188 19.9805 20.2056 19.3555C19.0988 18.724 18.2459 17.832 17.647 16.6797C17.048 15.5208 16.7485 14.1504 16.7485 12.5684C16.7485 11.0254 17.048 9.67122 17.647 8.50586C18.2459 7.34049 19.089 6.43229 20.1763 5.78125C21.27 5.13021 22.5526 4.80469 24.0239 4.80469C25.0135 4.80469 25.9347 4.96419 26.7876 5.2832C27.647 5.5957 28.3957 6.06771 29.0337 6.69922C29.6782 7.33073 30.1795 8.125 30.5376 9.08203C30.8957 10.0326 31.0747 11.1458 31.0747 12.4219V13.5645H18.4087V10.9863H27.1587C27.1587 10.3874 27.0285 9.85677 26.7681 9.39453C26.5077 8.93229 26.1463 8.57096 25.6841 8.31055C25.2284 8.04362 24.6978 7.91016 24.0923 7.91016C23.4608 7.91016 22.9009 8.05664 22.4126 8.34961C21.9308 8.63607 21.5532 9.02344 21.2798 9.51172C21.0063 9.99349 20.8664 10.5306 20.8599 11.123V13.5742C20.8599 14.3164 20.9966 14.9577 21.27 15.498C21.55 16.0384 21.9438 16.4551 22.4517 16.748C22.9595 17.041 23.5617 17.1875 24.2583 17.1875C24.7205 17.1875 25.1437 17.1224 25.5278 16.9922C25.9119 16.862 26.2407 16.6667 26.5142 16.4062C26.7876 16.1458 26.9959 15.8268 27.1392 15.4492L30.9868 15.7031C30.7915 16.6276 30.3911 17.4349 29.7856 18.125C29.1867 18.8086 28.4119 19.3424 27.4614 19.7266C26.5174 20.1042 25.4269 20.293 24.1899 20.293ZM37.5669 20.2832C36.6099 20.2832 35.757 20.1172 35.0083 19.7852C34.2596 19.4466 33.6672 18.9486 33.231 18.291C32.8013 17.627 32.5864 16.8001 32.5864 15.8105C32.5864 14.9772 32.7394 14.2773 33.0454 13.7109C33.3514 13.1445 33.7681 12.6888 34.2954 12.3437C34.8228 11.9987 35.4217 11.7383 36.0923 11.5625C36.7694 11.3867 37.479 11.263 38.2212 11.1914C39.0936 11.1003 39.7967 11.0156 40.3306 10.9375C40.8644 10.8529 41.2518 10.7292 41.4927 10.5664C41.7336 10.4036 41.854 10.1628 41.854 9.84375V9.78516C41.854 9.16667 41.6587 8.68815 41.2681 8.34961C40.884 8.01107 40.3371 7.8418 39.6274 7.8418C38.8787 7.8418 38.283 8.00781 37.8403 8.33984C37.3976 8.66536 37.1047 9.07552 36.9614 9.57031L33.1138 9.25781C33.3091 8.34635 33.6932 7.55859 34.2661 6.89453C34.839 6.22396 35.578 5.70963 36.4829 5.35156C37.3944 4.98698 38.4491 4.80469 39.647 4.80469C40.4803 4.80469 41.2778 4.90234 42.0396 5.09766C42.8078 5.29297 43.4881 5.5957 44.0806 6.00586C44.6795 6.41602 45.1515 6.94336 45.4966 7.58789C45.8416 8.22591 46.0142 8.99088 46.0142 9.88281V20H42.0688V17.9199H41.9517C41.7108 18.3887 41.3885 18.8021 40.9849 19.1602C40.5812 19.5117 40.0962 19.7884 39.5298 19.9902C38.9634 20.1855 38.3091 20.2832 37.5669 20.2832ZM38.7583 17.4121C39.3703 17.4121 39.9106 17.2917 40.3794 17.0508C40.8481 16.8034 41.216 16.4714 41.4829 16.0547C41.7498 15.638 41.8833 15.166 41.8833 14.6387V13.0469C41.7531 13.1315 41.5741 13.2096 41.3462 13.2812C41.1248 13.3464 40.8742 13.4082 40.5942 13.4668C40.3143 13.5189 40.0343 13.5677 39.7544 13.6133C39.4744 13.6523 39.2205 13.6882 38.9927 13.7207C38.5044 13.7923 38.078 13.9062 37.7134 14.0625C37.3488 14.2187 37.0656 14.4303 36.8638 14.6973C36.6619 14.9577 36.561 15.2832 36.561 15.6738C36.561 16.2402 36.7661 16.6732 37.1763 16.9727C37.5929 17.2656 38.1203 17.4121 38.7583 17.4121ZM48.7417 20V5H52.7065V7.64648H52.8823C53.1948 6.76758 53.7157 6.07422 54.4448 5.56641C55.174 5.05859 56.0464 4.80469 57.062 4.80469C58.0907 4.80469 58.9663 5.06185 59.689 5.57617C60.4116 6.08398 60.8934 6.77409 61.1343 7.64648H61.2905C61.5965 6.78711 62.1499 6.10026 62.9507 5.58594C63.758 5.0651 64.7118 4.80469 65.812 4.80469C67.2118 4.80469 68.3478 5.25065 69.2202 6.14258C70.0991 7.02799 70.5386 8.2845 70.5386 9.91211V20H66.3882V10.7324C66.3882 9.89909 66.1668 9.27409 65.7241 8.85742C65.2814 8.44076 64.728 8.23242 64.064 8.23242C63.3088 8.23242 62.7196 8.47331 62.2964 8.95508C61.8732 9.43034 61.6616 10.0586 61.6616 10.8398V20H57.6284V10.6445C57.6284 9.90885 57.4168 9.32292 56.9937 8.88672C56.577 8.45052 56.0269 8.23242 55.3433 8.23242C54.881 8.23242 54.4644 8.34961 54.0933 8.58398C53.7287 8.81185 53.439 9.13411 53.2241 9.55078C53.0093 9.96094 52.9019 10.4427 52.9019 10.9961V20H48.7417ZM85.7563 -5.96046e-07H89.9849V12.9883C89.9849 14.4466 89.6366 15.7227 88.9399 16.8164C88.2498 17.9102 87.283 18.763 86.0396 19.375C84.7961 19.9805 83.3475 20.2832 81.6938 20.2832C80.0337 20.2832 78.5819 19.9805 77.3384 19.375C76.0949 18.763 75.1281 17.9102 74.438 16.8164C73.7479 15.7227 73.4028 14.4466 73.4028 12.9883V-5.96046e-07H77.6313V12.627C77.6313 13.3887 77.7974 14.0658 78.1294 14.6582C78.4679 15.2507 78.9432 15.7161 79.5552 16.0547C80.1672 16.3932 80.88 16.5625 81.6938 16.5625C82.5142 16.5625 83.2271 16.3932 83.8325 16.0547C84.4445 15.7161 84.9165 15.2507 85.2485 14.6582C85.5871 14.0658 85.7563 13.3887 85.7563 12.627V-5.96046e-07ZM92.8857 25.625V5H96.9873V7.51953H97.1729C97.3551 7.11589 97.6188 6.70573 97.9639 6.28906C98.3154 5.86589 98.7712 5.51432 99.3311 5.23438C99.8975 4.94792 100.601 4.80469 101.44 4.80469C102.534 4.80469 103.543 5.09115 104.468 5.66406C105.392 6.23047 106.131 7.08659 106.685 8.23242C107.238 9.37174 107.515 10.8008 107.515 12.5195C107.515 14.1927 107.244 15.6055 106.704 16.7578C106.17 17.9036 105.441 18.7728 104.517 19.3652C103.599 19.9512 102.57 20.2441 101.431 20.2441C100.623 20.2441 99.9365 20.1107 99.3701 19.8437C98.8102 19.5768 98.3512 19.2415 97.9932 18.8379C97.6351 18.4277 97.3617 18.0143 97.1729 17.5977H97.0459V25.625H92.8857ZM96.958 12.5C96.958 13.3919 97.0817 14.1699 97.3291 14.834C97.5765 15.498 97.9346 16.0156 98.4033 16.3867C98.8721 16.7513 99.4417 16.9336 100.112 16.9336C100.789 16.9336 101.362 16.748 101.831 16.377C102.3 15.9993 102.655 15.4785 102.896 14.8145C103.143 14.1439 103.267 13.3724 103.267 12.5C103.267 11.6341 103.146 10.8724 102.905 10.2148C102.664 9.55729 102.31 9.04297 101.841 8.67187C101.372 8.30078 100.796 8.11523 100.112 8.11523C99.4352 8.11523 98.8623 8.29427 98.3936 8.65234C97.9313 9.01042 97.5765 9.51823 97.3291 10.1758C97.0817 10.8333 96.958 11.6081 96.958 12.5Z" fill="white"/>
<path d="M112.22 20.2539C111.575 20.2539 111.022 20.026 110.56 19.5703C110.104 19.1081 109.876 18.5547 109.876 17.9102C109.876 17.2721 110.104 16.7253 110.56 16.2695C111.022 15.8138 111.575 15.5859 112.22 15.5859C112.845 15.5859 113.392 15.8138 113.86 16.2695C114.329 16.7253 114.563 17.2721 114.563 17.9102C114.563 18.3398 114.453 18.7337 114.231 19.0918C114.017 19.4434 113.733 19.7266 113.382 19.9414C113.03 20.1497 112.643 20.2539 112.22 20.2539ZM124.237 25.9375C122.889 25.9375 121.734 25.752 120.77 25.3809C119.813 25.0163 119.051 24.5182 118.485 23.8867C117.918 23.2552 117.551 22.5456 117.381 21.7578L121.229 21.2402C121.346 21.5397 121.532 21.8197 121.786 22.0801C122.04 22.3405 122.375 22.5488 122.792 22.7051C123.215 22.8678 123.729 22.9492 124.334 22.9492C125.239 22.9492 125.985 22.7279 126.571 22.2852C127.163 21.849 127.459 21.1165 127.459 20.0879V17.3437H127.284C127.101 17.7604 126.828 18.1543 126.463 18.5254C126.099 18.8965 125.63 19.1992 125.057 19.4336C124.484 19.668 123.801 19.7852 123.006 19.7852C121.88 19.7852 120.855 19.5247 119.93 19.0039C119.012 18.4766 118.28 17.6725 117.733 16.5918C117.193 15.5046 116.922 14.1309 116.922 12.4707C116.922 10.7715 117.199 9.35221 117.752 8.21289C118.306 7.07357 119.042 6.2207 119.959 5.6543C120.884 5.08789 121.896 4.80469 122.997 4.80469C123.836 4.80469 124.54 4.94792 125.106 5.23438C125.672 5.51432 126.128 5.86589 126.473 6.28906C126.825 6.70573 127.095 7.11589 127.284 7.51953H127.44V5H131.571V20.1465C131.571 21.4225 131.258 22.4902 130.633 23.3496C130.008 24.209 129.142 24.8535 128.036 25.2832C126.935 25.7194 125.669 25.9375 124.237 25.9375ZM124.325 16.6602C124.995 16.6602 125.562 16.4941 126.024 16.1621C126.493 15.8236 126.851 15.3418 127.098 14.7168C127.352 14.0853 127.479 13.3301 127.479 12.4512C127.479 11.5723 127.355 10.8105 127.108 10.166C126.861 9.51497 126.502 9.01042 126.034 8.65234C125.565 8.29427 124.995 8.11523 124.325 8.11523C123.641 8.11523 123.065 8.30078 122.596 8.67187C122.127 9.03646 121.773 9.54427 121.532 10.1953C121.291 10.8464 121.17 11.5983 121.17 12.4512C121.17 13.3171 121.291 14.0658 121.532 14.6973C121.779 15.3223 122.134 15.8073 122.596 16.1523C123.065 16.4909 123.641 16.6602 124.325 16.6602ZM141.139 25.9375C139.792 25.9375 138.636 25.752 137.672 25.3809C136.715 25.0163 135.954 24.5182 135.387 23.8867C134.821 23.2552 134.453 22.5456 134.284 21.7578L138.131 21.2402C138.249 21.5397 138.434 21.8197 138.688 22.0801C138.942 22.3405 139.277 22.5488 139.694 22.7051C140.117 22.8678 140.631 22.9492 141.237 22.9492C142.142 22.9492 142.887 22.7279 143.473 22.2852C144.066 21.849 144.362 21.1165 144.362 20.0879V17.3437H144.186C144.004 17.7604 143.73 18.1543 143.366 18.5254C143.001 18.8965 142.532 19.1992 141.959 19.4336C141.387 19.668 140.703 19.7852 139.909 19.7852C138.782 19.7852 137.757 19.5247 136.833 19.0039C135.915 18.4766 135.182 17.6725 134.635 16.5918C134.095 15.5046 133.825 14.1309 133.825 12.4707C133.825 10.7715 134.101 9.35221 134.655 8.21289C135.208 7.07357 135.944 6.2207 136.862 5.6543C137.786 5.08789 138.799 4.80469 139.899 4.80469C140.739 4.80469 141.442 4.94792 142.008 5.23438C142.575 5.51432 143.03 5.86589 143.375 6.28906C143.727 6.70573 143.997 7.11589 144.186 7.51953H144.342V5H148.473V20.1465C148.473 21.4225 148.161 22.4902 147.536 23.3496C146.911 24.209 146.045 24.8535 144.938 25.2832C143.838 25.7194 142.571 25.9375 141.139 25.9375ZM141.227 16.6602C141.898 16.6602 142.464 16.4941 142.926 16.1621C143.395 15.8236 143.753 15.3418 144 14.7168C144.254 14.0853 144.381 13.3301 144.381 12.4512C144.381 11.5723 144.258 10.8105 144.01 10.166C143.763 9.51497 143.405 9.01042 142.936 8.65234C142.467 8.29427 141.898 8.11523 141.227 8.11523C140.543 8.11523 139.967 8.30078 139.499 8.67187C139.03 9.03646 138.675 9.54427 138.434 10.1953C138.193 10.8464 138.073 11.5983 138.073 12.4512C138.073 13.3171 138.193 14.0658 138.434 14.6973C138.681 15.3223 139.036 15.8073 139.499 16.1523C139.967 16.4909 140.543 16.6602 141.227 16.6602Z" fill="#00FFFF"/>
</svg>
